<svg width="1200" height="700" viewBox="0 0 1200 700" fill="none" xmlns="http://www.w3.org/2000/svg">
  <rect width="1200" height="700" rx="40" fill="#F8FAFC" />
  <path d="M180 520C180 465.346 224.346 421 279 421H645C699.654 421 744 465.346 744 520V560H180V520Z" fill="#DDE7FF" />
  <path d="M735 260C735 215.456 771.456 179 816 179H1016C1060.54 179 1097 215.456 1097 260V353H735V260Z" fill="#F6E7FF" />
  <path d="M430 213C430 173.91 463.91 140 503 140H664C703.09 140 737 173.91 737 213V294H430V213Z" fill="#CFE8FF" />
  <circle cx="920" cy="486" r="92" fill="#FFEBE7" />
  <path d="M862 520C862 515.582 865.582 512 870 512H970C974.418 512 978 515.582 978 520V566C978 570.418 974.418 574 970 574H870C865.582 574 862 570.418 862 566V520Z" fill="#FF9FAF" />
  <path d="M497 342C497 346.418 493.418 350 489 350H401C396.582 350 393 346.418 393 342V280C393 275.582 396.582 272 401 272H489C493.418 272 497 275.582 497 280V342Z" fill="#4056FF" />
  <path d="M563 366C563 370.418 559.418 374 555 374H351C346.582 374 343 370.418 343 366V288C343 283.582 346.582 280 351 280H555C559.418 280 563 283.582 563 288V366Z" fill="#D4DEFF" />
  <path d="M272 238C272 229.163 279.163 222 288 222H485C493.837 222 501 229.163 501 238V302C501 310.837 493.837 318 485 318H288C279.163 318 272 310.837 272 302V238Z" fill="#B3D8FF" />
  <path d="M820 417C820 399.326 837.326 382 855 382H1012C1029.67 382 1047 399.326 1047 417V482C1047 499.674 1029.67 517 1012 517H855C837.326 517 820 499.674 820 482V417Z" fill="#A5C8FF" />
  <path d="M141 212C141 164.553 179.553 126 227 126H331C378.447 126 417 164.553 417 212V328H141V212Z" fill="#FFF7E6" />
  <path d="M340 460C340 439.79 357.79 422 378 422H575C595.21 422 613 439.79 613 460V528C613 548.21 595.21 566 575 566H378C357.79 566 340 548.21 340 528V460Z" fill="#FEECE3" />
  <path d="M760 110C760 109.448 760.448 109 761 109H833C833.552 109 834 109.448 834 110V158C834 158.552 833.552 159 833 159H761C760.448 159 760 158.552 760 158V110Z" fill="#90C9FF" />
  <path d="M181 553C181 532.563 198.563 515 219 515H457C477.437 515 495 532.563 495 553V593H181V553Z" fill="#E4F0FF" />
  <path d="M1089 174C1089 176.761 1086.761 179 1084 179H1058C1055.239 179 1053 176.761 1053 174V152C1053 149.239 1055.239 147 1058 147H1084C1086.761 147 1089 149.239 1089 152V174Z" fill="#C3DAFF" />
  <path d="M600 600C620.091 600 637 616.909 637 637C637 657.091 620.091 674 600 674C579.909 674 563 657.091 563 637C563 616.909 579.909 600 600 600Z" fill="#FFD2E2" />
  <path fill="#FEF1F4" d="M668 540C668 507.49 692.49 483 725 483H905C937.51 483 962 507.49 962 540V605C962 637.51 937.51 662 905 662H725C692.49 662 668 637.51 668 605V540Z" />
  <path d="M812 535C812 523.954 821.954 514 833 514H860C871.046 514 881 523.954 881 535V563C881 574.046 871.046 584 860 584H833C821.954 584 812 574.046 812 563V535Z" fill="#FF9FAF" />
</svg>
