<svg width="1200" height="800" viewBox="0 0 1200 800" fill="none" xmlns="http://www.w3.org/2000/svg">
  <defs>
    <linearGradient id="bg" x1="0" y1="0" x2="1200" y2="800" gradientUnits="userSpaceOnUse">
      <stop stop-color="#E4F0FF" />
      <stop offset="1" stop-color="#F9F7FF" />
    </linearGradient>
  </defs>
  <rect width="1200" height="800" fill="url(#bg)" />
  <circle cx="940" cy="260" r="150" fill="#C9EBFF" opacity="0.8" />
  <circle cx="260" cy="560" r="210" fill="#F5E7FF" opacity="0.9" />
  <path d="M312 580C312 525.589 353.589 484 408 484H730C784.411 484 826 525.589 826 580V620H312V580Z" fill="#fff" />
  <path d="M408 484C355.606 484 316 522.606 316 575V620H500H730H844V575C844 522.606 804.394 484 752 484H408Z" fill="#E4F0FF" />
  <path d="M556 160C560.418 160 564 163.582 564 168C564 172.418 560.418 176 556 176H476C471.582 176 468 172.418 468 168C468 163.582 471.582 160 476 160H556Z" fill="#6C63FF" />
  <path d="M524 210C536.926 210 547 199.926 547 187C547 174.074 536.926 164 524 164C511.074 164 501 174.074 501 187C501 199.926 511.074 210 524 210Z" fill="#6C63FF" />
  <path d="M640 190C658.091 190 673 175.091 673 157C673 138.909 658.091 124 640 124C621.909 124 607 138.909 607 157C607 175.091 621.909 190 640 190Z" fill="#6C63FF" />
  <path d="M816 558C816 535.663 832.663 519 855 519H940C962.337 519 979 535.663 979 558V657C979 679.337 962.337 696 940 696H855C832.663 696 816 679.337 816 657V558Z" fill="#fff" />
  <path d="M624 332C624 299.49 648.49 275 681 275H761C793.51 275 818 299.49 818 332V383H624V332Z" fill="#fff" />
  <path d="M544 438C544 417.215 560.215 401 581 401H739C759.785 401 776 417.215 776 438V474C776 494.785 759.785 511 739 511H581C560.215 511 544 494.785 544 474V438Z" fill="#6C63FF" opacity="0.16" />
  <path d="M116 140C171.128 140 216 184.872 216 240C216 295.128 171.128 340 116 340C60.8721 340 16 295.128 16 240C16 184.872 60.8721 140 116 140Z" fill="#8BC9FF" opacity="0.75" />
  <path d="M106 170C111.523 170 116 174.477 116 180C116 185.523 111.523 190 106 190H97C91.4772 190 87 185.523 87 180C87 174.477 91.4772 170 97 170H106Z" fill="#fff" />
  <path d="M1080 664C1080 699.813 1050.81 729 1015 729H890C854.19 729 825 699.813 825 664V586C825 550.187 854.19 521 890 521H1015C1050.81 521 1080 550.187 1080 586V664Z" fill="#DDE7FF" />
  <path d="M362 240C402 240 434 272 434 312C434 352 402 384 362 384C322 384 290 352 290 312C290 272 322 240 362 240Z" fill="#6C63FF" />
  <path d="M409 364C413.418 364 417 367.582 417 372C417 376.418 413.418 380 409 380H331C326.582 380 323 376.418 323 372C323 367.582 326.582 364 331 364H409Z" fill="#fff" />
  <path d="M392 420C398.627 420 404 425.373 404 432C404 438.627 398.627 444 392 444H348C341.373 444 336 438.627 336 432C336 425.373 341.373 420 348 420H392Z" fill="#fff" />
</svg>
